<svg xmlns="http://www.w3.org/2000/svg" width="100" height="100" viewBox="0 0 100 100"><g><g><g><path fill="#dfedff" d="M50 0c27.614 0 50 22.386 50 50s-22.386 50-50 50S0 77.614 0 50 22.386 0 50 0z"/></g><g><path fill="#0f7bff" d="M44.189 27.917a.925.925 0 0 1-.27.65.924.924 0 0 1-.648.268.925.925 0 0 1-.649-.268.924.924 0 0 1-.27-.65.923.923 0 0 1 .918-.918c.242 0 .48.098.65.27.17.17.269.407.269.648zM74 44.166v25.243C74 71.94 71.94 74 69.41 74H31.59C29.059 74 27 71.94 27 69.41V44.166c0-.307.15-.577.38-.744l4.577-3.312V29.753A2.757 2.757 0 0 1 34.711 27h5.003a.918.918 0 0 1 0 1.836H34.71a.92.92 0 0 0-.918.918v18.024l11.205 9.149 2.811-2.034a4.58 4.58 0 0 1 5.382 0L56 56.926l11.206-9.149V29.753a.92.92 0 0 0-.918-.918H46.874a.918.918 0 0 1 0-1.836h19.415a2.757 2.757 0 0 1 2.754 2.754V40.11l4.577 3.312a.914.914 0 0 1 .38.744zm-4.957 2.112l2.534-2.069-2.534-1.833zm-39.62-2.069l2.534 2.069v-3.902zm-.587 24.412L43.459 58.04 28.836 46.1zm43.023 2.045l-1.483-1.073H58.67a.918.918 0 1 1 0-1.836h9.169L52.114 56.38a2.749 2.749 0 0 0-3.228 0L29.14 70.666a2.757 2.757 0 0 0 2.449 1.498h37.82c1.066 0 1.992-.61 2.45-1.498zm.305-24.566L57.541 58.04l14.623 10.58zm-17.14-6.848l-5.154 5.154a.917.917 0 0 1-1.298 0l-2.596-2.596a.918.918 0 1 1 1.298-1.298l1.947 1.947 4.505-4.505a.918.918 0 1 1 1.298 1.298zm4.7 1.928c0 5.086-4.138 9.223-9.224 9.223s-9.224-4.137-9.224-9.223c0-5.086 4.138-9.224 9.224-9.224s9.224 4.138 9.224 9.224zm-1.836 0c0-4.073-3.314-7.388-7.388-7.388s-7.388 3.315-7.388 7.388c0 4.074 3.314 7.387 7.388 7.387s7.388-3.313 7.388-7.387zm-2.461 27.495a.925.925 0 0 1-.27.649.924.924 0 0 1-.648.269.922.922 0 0 1-.918-.918.92.92 0 0 1 .918-.918.924.924 0 0 1 .918.918z"/></g></g></g></svg>