<svg xmlns="http://www.w3.org/2000/svg" width="100" height="100" viewBox="0 0 100 100"><g><g><g><path fill="#dfedff" d="M50 0c27.614 0 50 22.385 50 50 0 27.614-22.386 50-50 50S0 77.614 0 50C0 22.385 22.386 0 50 0z"/></g><g><path fill="#cfe4fe" d="M50.5 13C71.21 13 88 29.789 88 50.5 88 71.21 71.21 88 50.5 88S13 71.21 13 50.5C13 29.789 29.79 13 50.5 13z"/></g><g><path fill="#0f7bff" d="M78.002 24.23a1.138 1.138 0 0 1-.027.2c-.008.039-.004.077-.016.114L61.215 77.166a1.196 1.196 0 0 1-1.08.831c-.02.002-.039.002-.06.002-.474 0-.907-.283-1.097-.72L48.354 52.683l-24.586-9.447a1.195 1.195 0 0 1 .042-2.247l52.623-17.94c.04-.013.082-.01.123-.02.065-.015.128-.029.194-.032.07-.004.139.002.21.01.059.007.116.015.175.03.07.022.134.048.2.08.034.017.072.022.105.043.02.011.033.032.054.046.056.04.105.085.154.134.05.05.096.097.135.152.016.02.037.035.05.056.02.034.027.071.044.106a1.115 1.115 0 0 1 .116.38c.008.066.011.129.01.196zM48.955 50.353l23.38-23.38-44.63 15.215zm25.233-21.85L50.672 52.019l9.233 21.374zM41.786 60.905L25.042 77.649a1.192 1.192 0 0 1-1.691 0 1.195 1.195 0 0 1 0-1.692l16.744-16.743a1.195 1.195 0 1 1 1.69 1.691zm4.783 6.68a1.195 1.195 0 0 1 0 1.692l-8.371 8.372a1.192 1.192 0 0 1-1.691 0 1.195 1.195 0 0 1 0-1.692l8.371-8.372a1.195 1.195 0 0 1 1.692 0zm-23.218-3.092a1.194 1.194 0 0 1 0-1.691l8.372-8.372a1.194 1.194 0 0 1 1.69 0 1.194 1.194 0 0 1 0 1.691l-8.371 8.372a1.194 1.194 0 0 1-1.691 0z"/></g></g></g></svg>