<svg xmlns="http://www.w3.org/2000/svg" width="1920" height="1043" viewBox="0 0 1920 1043"><defs><mask id="wmbub" width="2" height="2" x="-1" y="-1"><path fill="#fff" d="M0-71h1945v1114H0z"/><path d="M270 900c189-9.59 291.98-41.952 414-158 122.02-116.05 233-230.524 360-257 127-26.477 278-34.188 390-154 112-119.813 96.198-271.728 201-331 .596-.337 1.195-.67 1.796-1H1613v-70h332v70h-28.176c2.077.638 3.176 1 3.176 1v1043H0s81-133.411 270-143z"/></mask><filter id="wmbua" width="2135" height="1304" x="-95" y="-166" filterUnits="userSpaceOnUse"><feOffset in="SourceGraphic" result="FeOffset1136Out"/><feGaussianBlur in="FeOffset1136Out" result="FeGaussianBlur1137Out" stdDeviation="34 34"/></filter></defs><g><g clip-path="url(#clip-60)"><g filter="url(#wmbua)"><path fill="none" d="M270 900c189-9.59 291.98-41.952 414-158 122.02-116.05 233-230.524 360-257 127-26.477 278-34.188 390-154 112-119.813 96.198-271.728 201-331 .596-.337 1.195-.67 1.796-1H1613v-70h332v70h-28.176c2.077.638 3.176 1 3.176 1v1043H0s81-133.411 270-143z" mask="url(&quot;#wmbub&quot;)"/><path fill="#7f7f7f" fill-opacity=".41" d="M270 900c189-9.59 291.98-41.952 414-158 122.02-116.05 233-230.524 360-257 127-26.477 278-34.188 390-154 112-119.813 96.198-271.728 201-331 .596-.337 1.195-.67 1.796-1H1613v-70h332v70h-28.176c2.077.638 3.176 1 3.176 1v1043H0s81-133.411 270-143z"/></g><path fill="#0f7bff" d="M270 900c189-9.59 291.98-41.952 414-158 122.02-116.05 233-230.524 360-257 127-26.477 278-34.188 390-154 112-119.813 96.198-271.728 201-331 .596-.337 1.195-.67 1.796-1H1613v-70h332v70h-28.176c2.077.638 3.176 1 3.176 1v1043H0s81-133.411 270-143z"/></g></g></svg>